/* XPM */
static char *xscanimage-icon-32x32-2[] = {
/* columns rows colors chars-per-pixel */
"32 32 154 2",
"   c #000000",
".  c #0B0B0B",
"X  c #131313",
"o  c #171817",
"O  c #1C1C1C",
"+  c #222222",
"@  c #272827",
"#  c #2C2C2C",
"$  c #333333",
"%  c #3B3B3B",
"&  c #434343",
"*  c #484847",
"=  c #4C4C4B",
"-  c #545454",
";  c #5C5B5B",
":  c #4E5C6A",
">  c #575C61",
",  c #525E68",
"<  c #4D6377",
"1  c #5E646A",
"2  c #5A6775",
"3  c #5D6E79",
"4  c #636364",
"5  c #696867",
"6  c #6C6C6B",
"7  c #606971",
"8  c #6C6F74",
"9  c #6F777F",
"0  c #747373",
"q  c #787675",
"w  c #7B7B7B",
"e  c #57768F",
"r  c #5A7387",
"t  c #577690",
"y  c #687E8F",
"u  c #717B85",
"i  c #787E85",
"p  c #638097",
"a  c #68879E",
"s  c #738C9F",
"d  c #7E8992",
"f  c #7E99AD",
"g  c #7498B1",
"h  c #7D9AB2",
"j  c #7FA0B5",
"k  c #719EC1",
"l  c #7AA3C4",
"z  c #7CA7C9",
"x  c #7BA9CD",
"c  c #807F7E",
"v  c #838384",
"b  c #81868C",
"n  c #878887",
"m  c #888887",
"M  c #8D8C8C",
"N  c #8F908F",
"B  c #8B9096",
"V  c #8E9398",
"C  c #949493",
"Z  c #9D9D9D",
"A  c #8192A0",
"S  c #8194AA",
"D  c #849EB4",
"F  c #939CA4",
"G  c #9FA09F",
"H  c #87A0AE",
"J  c #83A3BE",
"K  c #94A0AB",
"L  c #9DA2A4",
"P  c #90A7BB",
"I  c #9BADBB",
"U  c #A3A3A3",
"Y  c #A8A8A7",
"T  c #ABABAB",
"R  c #A2AEB9",
"E  c #ABADB0",
"W  c #AFB2B4",
"Q  c #ACB4BC",
"!  c #B0B0AF",
"~  c #B3B3B3",
"^  c #B3B7BB",
"/  c #B3BABF",
"(  c #B8B7B7",
")  c #BCBCBC",
"_  c #8DA8C0",
"`  c #8AB0CC",
"'  c #8EB9D7",
"]  c #91AEC4",
"[  c #99AFC1",
"{  c #94B3CC",
"}  c #9BB3C3",
"|  c #91BFDF",
" . c #9ABDD3",
".. c #A7B7C7",
"X. c #A5BCCF",
"o. c #ADB8C4",
"O. c #AABFCC",
"+. c #B9BEC4",
"@. c #99C2DB",
"#. c #ADC0C9",
"$. c #A2C3D8",
"%. c #B3CDDA",
"&. c #BBCFDC",
"*. c #BAD2DF",
"=. c #A1C8E0",
"-. c #A9CEE6",
";. c #A3DAFE",
":. c #ACD8F2",
">. c #ABDEFF",
",. c #B2D3E7",
"<. c #B1D6EB",
"1. c #B7DBEF",
"2. c #BDD5E5",
"3. c #BCDAEC",
"4. c #B9DFF4",
"5. c #B4E3FF",
"6. c #BBE5FE",
"7. c #C0BFC0",
"8. c #C4C4C4",
"9. c #C8C8C7",
"0. c #CBCBCB",
"q. c #CDD1D5",
"w. c #D4D4D4",
"e. c #D8D7D6",
"r. c #DCDBDB",
"t. c #C4D9E6",
"y. c #C7DFEE",
"u. c #DEDEE1",
"i. c #C0E6FC",
"p. c #C3E8FD",
"a. c #CAEBFD",
"s. c #D4E3ED",
"d. c #D4E4F0",
"f. c #D7ECF7",
"g. c #D2EEFE",
"h. c #DDE9F0",
"j. c #D6F2FE",
"k. c #DFF1FC",
"l. c #E0DFDF",
"z. c #E4E4E4",
"x. c #E8E7E6",
"c. c #ECECEC",
"v. c #E3ECF2",
"b. c #E8EFF2",
"n. c #E4F4FE",
"m. c #ECF7FD",
"M. c #EDF8FE",
"N. c #F0EFEE",
"B. c #F1F0EF",
"V. c #F1F1F0",
"C. c #F1F7FC",
"Z. c #F4FAFE",
"A. c #FCFCFE",
"S. c None",
/* pixels */
"S.S.S.S.S.S.X . .   S.S.S.S.S.S.S.S.S.S.S.S.S.S.S.S.S.S.S.S.S.S.",
"S.S.S.S.S.& ; & + . .     S.S.S.S.S.S.S.S.S.S.S.S.S.S.S.S.S.S.S.",
"S.S.S.S.S.- Z w.! w ; % o X .       S.S.S.S.S.S.S.S.S.S.S.S.S.S.",
"S.S.S.S.S.+ ; Y l.c.z.w.~ M - # O . . .   S.S.S.S.S.S.S.S.S.S.S.",
"S.S.S.S.S.. X + - 5 w ! 9.u.x.e.! v > % O X .       S.S.S.S.S.S.",
"S.S.S.S.S.S.  . X $ = > 4 0 m U 8.r.r.0.! M - $ + . .     S.S.S.",
"S.S.S.S.S.S.S.    X O % = = & = - 4 w Y ) w.r.w.! w ; % O . .   ",
"S.S.S.S.S.S.S.S.    . X * ; & & & & & & - 5 w Z ) w.q.) U 0 % O ",
"S.S.S.S.S.S.S.    . o ; M q 0 q 5 - = * & % & * = - 0 m Z Y ) 4 ",
"S.S.S.S.S.S.S.    . 5 ~ i y H p u 9 8 5 ; ; = & & % $ $ % = 4 % ",
"S.S.S.S.S.S.S.  . - ) b y &.v.v.s.$.f s r 2 1 5 4 - & & $ $ + o ",
"S.S.S.S.S.S.  . - ) V a t.C.A.A.A.Z.Z.n.2.X.g e < , > ; - = $ O ",
"S.S.S.S.S.. X ; 9.F f y.Z.A.A.A.Z.Z.A.Z.Z.Z.M.h.%.j e , ; = % + ",
"S.S.S.S.. o 5 0.T R b.A.A.Z.Z.Z.Z.Z.Z.Z.Z.Z.Z.Z.Z.c.O.3 ; & & + ",
"S.S.S.X @ w e.) I b.A.A.A.A.Z.Z.Z.Z.Z.Z.M.Z.Z.M.M.Z.O.7 - % % + ",
"S.S.. # w r.8.D h.A.A.A.A.A.A.A.Z.Z.Z.Z.M.M.M.M.m.m.D q = * + O ",
"S.. O 6 r.9.D -.g.k.Z.A.A.A.A.A.A.A.A.A.Z.Z.M.n.Z.3.b w = = O + ",
". O ; u.r.H @.6.;.>.6.a.n.Z.A.A.A.A.A.A.A.A.Z.Z.M.P v 6 - $ O + ",
"O ; e.V.o.g :.i.i.5.>.>.5.6.g.n.Z.A.A.A.A.A.A.A.s.s n ; - @ + O ",
"O ~ A.c.w.{ l x | 6.a.a.6.6.5.6.p.g.n.Z.A.A.A.Z.X.B c ; = O O X ",
"X T c.c.B.N.l.q...J l @.,.p.j.a.i.6.6.i.f.n.Z.d.f Z 6 ; % O O X ",
". Z w.q.e.l.c.N.N.x.q.o.P [ { ,.f.g.a.p.6.i.k.` F C ; 4 + O O   ",
"X C 0.8.8.9.9.q.r.x.N.N.x.e.#.o.I  .*.1.g.j.1.h Y w 4 = O + X   ",
"X ; U ~ ) 7.) ) 8.8.9.w.l.x.N.x.r.0.Q I I ' z K U 5 4 % O O .   ",
"  X O $ 6 v Y ( ~ ( ( ) ) 8.0.r.z.x.l.w.8.( ~ ! M 4 4 + + O     ",
"S.  . . X o & - m U T ! ! T ! ( ( ) 9.q.w.e.w.~ 0 5 - + + X   S.",
"S.S.      . . . O + - w Z Y Y T Y T T ! ~ ) 8.! 5 0 $ O O .   S.",
"S.S.S.S.          . X X $ * 6 C Z Y U U U Y Y G 6 6 + O o . S.S.",
"S.S.S.S.S.S.S.S.        . . o + * 6 v U U Z F N q = O O .   S.S.",
"S.S.S.S.S.S.S.S.S.S.          . X X + & 4 M Z C w % O O .   S.S.",
"S.S.S.S.S.S.S.S.S.S.S.S.S.S.      . . . X O $ - - + O o   S.S.S.",
"S.S.S.S.S.S.S.S.S.S.S.S.S.S.S.S.        . . . . X o O .   S.S.S."
};
